<svg width="18" height="18" viewBox="0 0 18 18" fill="none" xmlns="http://www.w3.org/2000/svg">
<path d="M2.32896 17.6377C2.074 17.8761 1.73678 18.006 1.38834 17.9998C1.0399 17.9936 0.707452 17.8519 0.46103 17.6046C0.214609 17.3573 0.0734557 17.0236 0.0673079 16.6738C0.0611601 16.3241 0.190497 15.9856 0.428073 15.7297L7.09911 9.03368L0.428073 2.33768C0.295931 2.21408 0.189943 2.06504 0.116433 1.89944C0.0429225 1.73384 0.00339561 1.55508 0.000209317 1.37382C-0.00297697 1.19255 0.0302426 1.0125 0.0978874 0.844398C0.165532 0.6763 0.266216 0.523602 0.393932 0.395407C0.521647 0.267214 0.673779 0.166153 0.841251 0.0982552C1.00872 0.0303574 1.1881 -0.00298882 1.36869 0.000209808C1.54928 0.00340843 1.72738 0.0430832 1.89236 0.116869C2.05734 0.190655 2.20583 0.297039 2.32896 0.429676L9 7.12567L15.671 0.429676C15.7942 0.297039 15.9427 0.190655 16.1076 0.116869C16.2726 0.0430832 16.4507 0.00340843 16.6313 0.000209808C16.8119 -0.00298882 16.9913 0.0303574 17.1587 0.0982552C17.3262 0.166153 17.4784 0.267214 17.6061 0.395407C17.7338 0.523602 17.8345 0.6763 17.9021 0.844398C17.9698 1.0125 18.003 1.19255 17.9998 1.37382C17.9966 1.55508 17.9571 1.73384 17.8836 1.89944C17.8101 2.06504 17.7041 2.21408 17.5719 2.33768L10.9009 9.03368L17.5719 15.7297C17.8095 15.9856 17.9388 16.3241 17.9327 16.6738C17.9265 17.0236 17.7854 17.3573 17.539 17.6046C17.2925 17.8519 16.9601 17.9936 16.6117 17.9998C16.2632 18.006 15.926 17.8761 15.671 17.6377L9 10.9417L2.32896 17.6377Z" fill="#8B3CF1"/>
</svg>
