<svg width="280" height="147" viewBox="0 0 280 147" fill="none" xmlns="http://www.w3.org/2000/svg">
<path d="M252.568 60.6418H88.2908C87.5932 60.6418 86.9243 60.9772 86.431 61.5741C85.9378 62.171 85.6607 62.9806 85.6607 63.8248C85.6607 64.669 85.9378 65.4786 86.431 66.0755C86.9243 66.6724 87.5932 67.0078 88.2908 67.0078H92.944V143.154C92.944 143.998 93.2211 144.808 93.7143 145.404C94.2075 146.001 94.8765 146.337 95.574 146.337C96.2716 146.337 96.9405 146.001 97.4338 145.404C97.927 144.808 98.2041 143.998 98.2041 143.154L98.244 67.0078H230.093L242.25 143.154C242.25 143.998 242.527 144.808 243.021 145.404C243.514 146.001 244.183 146.337 244.88 146.337C245.578 146.337 246.247 146.001 246.74 145.404C247.233 144.808 247.51 143.998 247.51 143.154L248.276 67.0078H252.568C253.266 67.0078 253.935 66.6724 254.428 66.0755C254.921 65.4786 255.198 64.669 255.198 63.8248C255.198 62.9806 254.921 62.171 254.428 61.5741C253.935 60.9772 253.266 60.6418 252.568 60.6418Z" fill="#CCCCCC"/>
<path d="M116.766 46.459V59.938H88.8623C88.131 59.9688 87.4018 59.8249 86.7165 59.5147C86.0311 59.2044 85.4029 58.7339 84.8678 58.1298C84.3327 57.5258 83.9012 56.8001 83.5978 55.9942C83.2945 55.1883 83.1252 54.318 83.0998 53.433C83.0743 52.5479 83.1932 51.6655 83.4495 50.836C83.7059 50.0066 84.0947 49.2464 84.5938 48.5988C85.093 47.9512 85.6926 47.4289 86.3585 47.0618C87.0244 46.6946 87.7435 46.4898 88.4748 46.459C88.6039 46.4536 88.7331 46.4536 88.8623 46.459L116.766 46.459Z" fill="#F2F2F2"/>
<path d="M117.451 59.8343C117.451 59.9718 117.406 60.1036 117.326 60.2008C117.246 60.298 117.137 60.3527 117.023 60.3527H88.3653C86.8096 60.3514 85.3179 59.6025 84.2182 58.2707C83.1185 56.9389 82.5008 55.1332 82.5008 53.2503C82.5008 51.3675 83.1185 49.5618 84.2182 48.23C85.3179 46.8982 86.8096 46.1493 88.3653 46.148H117.023C117.08 46.1478 117.135 46.1611 117.187 46.1871C117.24 46.213 117.287 46.2512 117.327 46.2994C117.367 46.3475 117.398 46.4047 117.42 46.4677C117.442 46.5307 117.453 46.5982 117.453 46.6664C117.453 46.7346 117.442 46.8021 117.42 46.8651C117.398 46.9281 117.367 46.9853 117.327 47.0335C117.287 47.0816 117.24 47.1198 117.187 47.1458C117.135 47.1717 117.08 47.185 117.023 47.1848H88.3653C87.0374 47.1873 85.7645 47.8274 84.8263 48.9646C83.888 50.1019 83.361 51.6433 83.361 53.2503C83.361 54.8574 83.888 56.3988 84.8263 57.5361C85.7645 58.6733 87.0374 59.3134 88.3653 59.3159H117.023C117.137 59.3159 117.246 59.3706 117.326 59.4678C117.406 59.565 117.451 59.6968 117.451 59.8343Z" fill="#8B3CF1"/>
<path d="M116.766 49.5696H86.7803C86.7577 49.5697 86.7359 49.559 86.7197 49.5397C86.7036 49.5205 86.6944 49.4943 86.6942 49.4668C86.694 49.4394 86.7028 49.413 86.7186 49.3934C86.7345 49.3738 86.7561 49.3626 86.7787 49.3622H116.766C116.789 49.3625 116.81 49.3735 116.826 49.3929C116.842 49.4124 116.851 49.4386 116.851 49.4659C116.851 49.4932 116.842 49.5194 116.826 49.5388C116.81 49.5583 116.789 49.5693 116.766 49.5696Z" fill="#CCCCCC"/>
<path d="M116.766 52.058H86.7803C86.7577 52.0582 86.7359 52.0474 86.7197 52.0282C86.7036 52.0089 86.6944 51.9827 86.6942 51.9553C86.694 51.9279 86.7028 51.9014 86.7186 51.8818C86.7345 51.8622 86.7561 51.851 86.7787 51.8506H116.766C116.789 51.8509 116.81 51.862 116.826 51.8814C116.842 51.9008 116.851 51.927 116.851 51.9543C116.851 51.9817 116.842 52.0079 116.826 52.0273C116.81 52.0467 116.789 52.0577 116.766 52.058Z" fill="#CCCCCC"/>
<path d="M116.766 54.5464H86.7803C86.7577 54.5466 86.7359 54.5358 86.7197 54.5166C86.7036 54.4973 86.6944 54.4711 86.6942 54.4437C86.694 54.4163 86.7028 54.3898 86.7186 54.3702C86.7345 54.3506 86.7561 54.3394 86.7787 54.3391H116.766C116.789 54.3393 116.81 54.3504 116.826 54.3698C116.842 54.3892 116.851 54.4154 116.851 54.4427C116.851 54.4701 116.842 54.4963 116.826 54.5157C116.81 54.5351 116.789 54.5461 116.766 54.5464Z" fill="#CCCCCC"/>
<path d="M116.766 57.0348H86.7803C86.7577 57.035 86.7359 57.0242 86.7197 57.005C86.7036 56.9857 86.6944 56.9595 86.6942 56.9321C86.694 56.9047 86.7028 56.8782 86.7186 56.8586C86.7345 56.839 86.7561 56.8278 86.7787 56.8275H116.766C116.789 56.8277 116.81 56.8388 116.826 56.8582C116.842 56.8776 116.851 56.9038 116.851 56.9311C116.851 56.9585 116.842 56.9847 116.826 57.0041C116.81 57.0235 116.789 57.0345 116.766 57.0348Z" fill="#CCCCCC"/>
<path d="M111.506 32.2582V45.7371H83.6022C82.1252 45.7993 80.6884 45.1489 79.6077 43.929C78.527 42.7091 77.891 41.0195 77.8396 39.2321C77.7883 37.4447 78.3257 35.7058 79.3337 34.3979C80.3417 33.0901 81.7378 32.3204 83.2147 32.2582C83.3438 32.2528 83.473 32.2528 83.6022 32.2582H111.506Z" fill="#F2F2F2"/>
<path d="M112.191 45.6334C112.191 45.7709 112.146 45.9027 112.066 46C111.986 46.0972 111.877 46.1518 111.763 46.1519H83.1052C81.5487 46.1519 80.056 45.4036 78.9554 44.0716C77.8549 42.7397 77.2366 40.9332 77.2366 39.0495C77.2366 37.1658 77.8549 35.3593 78.9554 34.0274C80.056 32.6954 81.5487 31.9471 83.1052 31.9471H111.763C111.819 31.9471 111.875 31.9606 111.927 31.9866C111.979 32.0127 112.026 32.0508 112.066 32.099C112.106 32.1471 112.137 32.2043 112.159 32.2672C112.18 32.3301 112.191 32.3975 112.191 32.4656C112.191 32.5336 112.18 32.601 112.159 32.6639C112.137 32.7268 112.106 32.784 112.066 32.8321C112.026 32.8803 111.979 32.9185 111.927 32.9445C111.875 32.9706 111.819 32.984 111.763 32.984H83.1052C81.776 32.984 80.5012 33.623 79.5612 34.7605C78.6213 35.898 78.0933 37.4408 78.0933 39.0495C78.0933 40.6582 78.6213 42.201 79.5612 43.3385C80.5012 44.476 81.776 45.115 83.1052 45.115H111.763C111.877 45.1151 111.986 45.1697 112.066 45.2669C112.146 45.3641 112.191 45.496 112.191 45.6334Z" fill="#3F3D56"/>
<path d="M111.506 35.3687H81.5202C81.4975 35.3689 81.4757 35.3581 81.4596 35.3389C81.4435 35.3196 81.4343 35.2934 81.4341 35.266C81.4338 35.2386 81.4426 35.2121 81.4585 35.1925C81.4743 35.1729 81.4959 35.1617 81.5186 35.1613H111.506C111.529 35.1616 111.55 35.1727 111.566 35.1921C111.582 35.2115 111.591 35.2377 111.591 35.265C111.591 35.2923 111.582 35.3186 111.566 35.338C111.55 35.3574 111.529 35.3684 111.506 35.3687Z" fill="#CCCCCC"/>
<path d="M111.506 37.8571H81.5202C81.4975 37.8573 81.4757 37.8466 81.4596 37.8273C81.4435 37.8081 81.4343 37.7819 81.4341 37.7544C81.4338 37.727 81.4426 37.7006 81.4585 37.681C81.4743 37.6614 81.4959 37.6501 81.5186 37.6498H111.506C111.529 37.6501 111.55 37.6611 111.566 37.6805C111.582 37.6999 111.591 37.7261 111.591 37.7535C111.591 37.7808 111.582 37.807 111.566 37.8264C111.55 37.8458 111.529 37.8569 111.506 37.8571Z" fill="#CCCCCC"/>
<path d="M111.506 40.3455H81.5202C81.4975 40.3457 81.4757 40.335 81.4596 40.3157C81.4435 40.2965 81.4343 40.2702 81.4341 40.2428C81.4338 40.2154 81.4426 40.189 81.4585 40.1694C81.4743 40.1498 81.4959 40.1385 81.5186 40.1382H111.506C111.529 40.1385 111.55 40.1495 111.566 40.1689C111.582 40.1883 111.591 40.2145 111.591 40.2419C111.591 40.2692 111.582 40.2954 111.566 40.3148C111.55 40.3342 111.529 40.3453 111.506 40.3455Z" fill="#CCCCCC"/>
<path d="M111.506 42.8339H81.5202C81.4975 42.8341 81.4757 42.8234 81.4596 42.8041C81.4435 42.7849 81.4343 42.7587 81.4341 42.7312C81.4338 42.7038 81.4426 42.6774 81.4585 42.6578C81.4743 42.6382 81.4959 42.6269 81.5186 42.6266H111.506C111.529 42.6269 111.55 42.6379 111.566 42.6573C111.582 42.6767 111.591 42.703 111.591 42.7303C111.591 42.7576 111.582 42.7838 111.566 42.8032C111.55 42.8226 111.529 42.8337 111.506 42.8339Z" fill="#CCCCCC"/>
<path d="M143.967 108.338V96.5856C143.967 96.0661 143.796 95.5679 143.493 95.2005C143.189 94.8332 142.777 94.6268 142.348 94.6268H105.527C105.098 94.6268 104.686 94.8332 104.383 95.2005C104.079 95.5679 103.909 96.0661 103.909 96.5856V108.338H143.967Z" fill="#CCCCCC"/>
<path d="M143.967 112.745H103.909V127.925H143.967V112.745Z" fill="#CCCCCC"/>
<path d="M103.909 132.333V144.085C103.909 144.605 104.079 145.103 104.383 145.47C104.686 145.837 105.098 146.044 105.527 146.044H142.348C142.777 146.044 143.189 145.837 143.493 145.47C143.796 145.103 143.967 144.605 143.967 144.085V132.333H103.909Z" fill="#CCCCCC"/>
<path d="M123.735 103.441C124.406 103.441 124.949 102.783 124.949 101.972C124.949 101.161 124.406 100.503 123.735 100.503C123.065 100.503 122.522 101.161 122.522 101.972C122.522 102.783 123.065 103.441 123.735 103.441Z" fill="white"/>
<path d="M123.735 123.029C124.406 123.029 124.949 122.371 124.949 121.56C124.949 120.748 124.406 120.09 123.735 120.09C123.065 120.09 122.522 120.748 122.522 121.56C122.522 122.371 123.065 123.029 123.735 123.029Z" fill="white"/>
<path d="M123.8 142.201C124.471 142.201 125.014 141.544 125.014 140.732C125.014 139.921 124.471 139.263 123.8 139.263C123.13 139.263 122.587 139.921 122.587 140.732C122.587 141.544 123.13 142.201 123.8 142.201Z" fill="white"/>
<path d="M139.425 81.2267V94.7056H111.521C110.045 94.7666 108.609 94.1156 107.529 92.8958C106.449 91.6761 105.814 89.9873 105.763 88.2007C105.711 86.4141 106.248 84.6759 107.255 83.3682C108.262 82.0604 109.657 81.2902 111.133 81.2267C111.263 81.2213 111.392 81.2213 111.521 81.2267H139.425Z" fill="#F2F2F2"/>
<path d="M140.11 94.6019C140.11 94.7394 140.065 94.8712 139.985 94.9685C139.905 95.0657 139.796 95.1203 139.682 95.1204H111.024C109.468 95.1208 107.976 94.3733 106.875 93.0423C105.774 91.7112 105.155 89.9055 105.154 88.0223C105.153 86.139 105.77 84.3325 106.87 82.9998C107.969 81.6671 109.461 80.9174 111.017 80.9156H139.682C139.738 80.9155 139.794 80.9287 139.846 80.9547C139.898 80.9807 139.946 81.0188 139.986 81.067C140.026 81.1152 140.057 81.1724 140.079 81.2354C140.1 81.2983 140.112 81.3659 140.112 81.4341C140.112 81.5023 140.1 81.5698 140.079 81.6328C140.057 81.6957 140.026 81.7529 139.986 81.8011C139.946 81.8493 139.898 81.8874 139.846 81.9134C139.794 81.9394 139.738 81.9527 139.682 81.9525H111.024C109.696 81.9546 108.423 82.5945 107.485 83.7318C106.546 84.8691 106.019 86.4107 106.019 88.018C106.019 89.6253 106.546 91.1669 107.485 92.3042C108.423 93.4414 109.696 94.0814 111.024 94.0835H139.682C139.796 94.0836 139.905 94.1382 139.985 94.2354C140.065 94.3326 140.11 94.4645 140.11 94.6019Z" fill="#3F3D56"/>
<path d="M139.425 84.3372H109.439C109.417 84.3373 109.395 84.3266 109.379 84.3073C109.363 84.2881 109.353 84.2619 109.353 84.2345C109.353 84.207 109.362 84.1806 109.378 84.161C109.393 84.1414 109.415 84.1302 109.438 84.1298H139.425C139.448 84.1301 139.469 84.1411 139.485 84.1606C139.501 84.18 139.51 84.2062 139.51 84.2335C139.51 84.2608 139.501 84.287 139.485 84.3065C139.469 84.3259 139.448 84.3369 139.425 84.3372Z" fill="#CCCCCC"/>
<path d="M139.425 86.8257H109.439C109.417 86.8258 109.395 86.8151 109.379 86.7958C109.363 86.7766 109.353 86.7504 109.353 86.7229C109.353 86.6955 109.362 86.6691 109.378 86.6495C109.393 86.6299 109.415 86.6186 109.438 86.6183H139.425C139.448 86.6186 139.469 86.6296 139.485 86.649C139.501 86.6684 139.51 86.6947 139.51 86.722C139.51 86.7493 139.501 86.7755 139.485 86.7949C139.469 86.8143 139.448 86.8254 139.425 86.8257Z" fill="#CCCCCC"/>
<path d="M139.425 89.3141H109.439C109.417 89.3142 109.395 89.3035 109.379 89.2842C109.363 89.265 109.353 89.2388 109.353 89.2113C109.353 89.1839 109.362 89.1575 109.378 89.1379C109.393 89.1183 109.415 89.1071 109.438 89.1067H139.425C139.448 89.107 139.469 89.118 139.485 89.1374C139.501 89.1568 139.51 89.1831 139.51 89.2104C139.51 89.2377 139.501 89.2639 139.485 89.2833C139.469 89.3027 139.448 89.3138 139.425 89.3141Z" fill="#CCCCCC"/>
<path d="M139.425 91.8025H109.439C109.417 91.8026 109.395 91.7919 109.379 91.7726C109.363 91.7534 109.353 91.7272 109.353 91.6997C109.353 91.6723 109.362 91.6459 109.378 91.6263C109.393 91.6067 109.415 91.5955 109.438 91.5951H139.425C139.448 91.5954 139.469 91.6064 139.485 91.6258C139.501 91.6452 139.51 91.6714 139.51 91.6988C139.51 91.7261 139.501 91.7523 139.485 91.7717C139.469 91.7911 139.448 91.8022 139.425 91.8025Z" fill="#CCCCCC"/>
<path d="M106.654 27.7617H93.9402C93.8196 27.7615 93.7005 27.7951 93.5923 27.8596L90.3836 29.8036C90.278 29.858 90.1879 29.9487 90.1246 30.0645C90.0613 30.1803 90.0276 30.3161 90.0276 30.4549C90.0276 30.5938 90.0613 30.7296 90.1246 30.8454C90.1879 30.9612 90.278 31.0519 90.3836 31.1062L93.5923 33.0502C93.7005 33.1148 93.8196 33.1483 93.9402 33.1482H106.654C106.829 33.1604 107.001 33.0887 107.133 32.9485C107.264 32.8082 107.345 32.6108 107.358 32.3989V28.5109C107.345 28.299 107.264 28.1016 107.133 27.9614C107.001 27.8211 106.829 27.7494 106.654 27.7617Z" fill="#3F3D56"/>
<path d="M107.358 28.5109V32.399C107.345 32.6108 107.264 32.8082 107.133 32.9485C107.001 33.0887 106.829 33.1605 106.654 33.1482H104.121V27.7617H106.654C106.829 27.7494 107.001 27.8212 107.133 27.9614C107.264 28.1016 107.345 28.299 107.358 28.5109Z" fill="#8B3CF1"/>
<path d="M30.4335 103.947C32.0706 104.643 33.8282 104.818 35.5371 104.454C37.246 104.089 38.8485 103.198 40.1904 101.867C43.6078 98.3957 44.6792 92.6768 45.551 87.3814C46.4106 82.1605 47.2701 76.9396 48.1297 71.7186L42.731 76.2174C38.8487 79.4526 34.8789 82.7914 32.1907 87.4775C29.5026 92.1636 28.3292 98.5605 30.4891 103.631" fill="#E6E6E6"/>
<path d="M30.895 122.91C30.3486 118.093 29.7868 113.215 30.17 108.346C30.5104 104.023 31.6004 99.7996 33.8194 96.337C34.9973 94.5026 36.4305 92.9308 38.0546 91.6924C38.4781 91.3689 38.8679 92.1812 38.4463 92.5033C35.636 94.6527 33.4624 97.8267 32.2388 101.568C30.8873 105.728 30.6703 110.262 30.9032 114.682C31.044 117.354 31.3425 120.009 31.6433 122.66C31.667 122.78 31.6522 122.907 31.6019 123.014C31.5516 123.121 31.4696 123.201 31.3723 123.238C31.2731 123.27 31.1674 123.254 31.078 123.193C30.9887 123.131 30.9229 123.03 30.895 122.91Z" fill="#F2F2F2"/>
<path d="M36.1579 114.387C36.86 115.678 37.8251 116.729 38.9601 117.438C40.0952 118.147 41.362 118.49 42.6385 118.435C45.9191 118.246 48.6541 115.475 51.1161 112.844L58.3981 105.063L53.5786 104.784C50.1127 104.583 46.5574 104.396 43.2562 105.69C39.9551 106.983 36.9105 110.096 36.3069 114.232" fill="#E6E6E6"/>
<path d="M29.3508 125.679C31.9808 120.047 35.0313 113.788 40.4821 111.788C41.9977 111.233 43.5868 111.035 45.164 111.203C45.6611 111.254 45.537 112.182 45.0408 112.13C42.3971 111.864 39.7584 112.709 37.5691 114.522C35.4624 116.258 33.8221 118.67 32.4337 121.229C31.5833 122.796 30.8215 124.43 30.0597 126.062C29.8162 126.583 29.1045 126.207 29.3508 125.679Z" fill="#F2F2F2"/>
<path d="M25.1369 131.607C25.2255 130.364 25.5941 129.175 26.2027 128.168C26.8112 127.162 27.6363 126.377 28.5881 125.898V122.642H33.1003V126.001C34.0052 126.503 34.7841 127.286 35.3573 128.271C35.9306 129.256 36.2778 130.407 36.3636 131.607L37.4246 146.533H24.0758L25.1369 131.607Z" fill="#F2F2F2"/>
<path d="M178.59 60.3358L177.248 59.6518L176.327 51.5082H164.065L163.067 59.6186L161.866 60.3452C161.808 60.38 161.762 60.4372 161.735 60.5077C161.708 60.5781 161.701 60.6576 161.716 60.7332C161.73 60.8089 161.766 60.8763 161.816 60.9246C161.867 60.9728 161.929 60.9991 161.993 60.9991H178.48C178.545 60.9991 178.609 60.9715 178.66 60.921C178.711 60.8706 178.746 60.8003 178.759 60.7222C178.772 60.6441 178.762 60.563 178.732 60.4926C178.701 60.4221 178.651 60.3668 178.59 60.3358Z" fill="#E6E6E6"/>
<path d="M200.381 52.5917H140.145C139.829 52.5908 139.526 52.4383 139.303 52.1675C139.08 51.8968 138.954 51.5299 138.954 51.1474V40.8676H201.572V51.1474C201.572 51.5299 201.447 51.8968 201.224 52.1675C201 52.4383 200.697 52.5908 200.381 52.5917Z" fill="#CCCCCC"/>
<path d="M201.635 45.7261H138.899V1.74104C138.9 1.27944 139.051 0.8369 139.321 0.510507C139.591 0.184113 139.956 0.000516499 140.338 0H200.196C200.578 0.00051649 200.944 0.184114 201.213 0.510507C201.483 0.8369 201.635 1.27944 201.635 1.74104L201.635 45.7261Z" fill="#3F3D56"/>
<path d="M197.888 42.5336H142.646C142.352 42.5332 142.07 42.3917 141.862 42.1401C141.654 41.8884 141.537 41.5473 141.537 41.1914V4.53466C141.537 4.17878 141.654 3.8376 141.862 3.58595C142.07 3.33431 142.352 3.19276 142.646 3.19235H197.888C198.182 3.19276 198.464 3.33431 198.672 3.58595C198.88 3.8376 198.997 4.17878 198.997 4.53466V41.1914C198.997 41.5473 198.88 41.8884 198.672 42.1401C198.464 42.3917 198.182 42.5332 197.888 42.5336Z" fill="white"/>
<path d="M183.338 55.468C183.695 55.0693 184.119 54.7701 184.582 54.5915C185.045 54.4128 185.534 54.3591 186.015 54.4341C186.497 54.509 186.959 54.7109 187.369 55.0254C187.779 55.3398 188.127 55.7593 188.389 56.2543L195.861 54.6465L197.776 59.9036L187.198 61.9947C186.481 62.4716 185.646 62.614 184.848 62.3949C184.051 62.1758 183.348 61.6104 182.873 60.8059C182.397 60.0014 182.181 59.0137 182.267 58.0299C182.353 57.046 182.734 56.1345 183.338 55.468Z" fill="#FFB6B6"/>
<path d="M190.256 62.1804L198.046 62.0629L199.032 62.0468L214.881 61.8051C214.881 61.8051 219.185 56.836 222.932 51.72L222.407 47.122C221.895 42.6095 220.045 38.4761 217.202 35.4908C211.835 39.8313 208.722 48.4227 208.722 48.4227L198.896 51.2672L197.912 51.5517L191.807 53.3175L190.256 62.1804Z" fill="#8B3CF1"/>
<path d="M230.133 90.4415H215.593C215.593 91.1955 199.698 91.8075 199.698 91.8075C199.347 92.127 199.027 92.4936 198.745 92.9002C197.897 94.125 197.433 95.6731 197.436 97.2714V98.3641C197.436 100.175 198.031 101.912 199.089 103.193C200.147 104.474 201.583 105.193 203.079 105.194H230.133C231.63 105.192 233.064 104.472 234.122 103.192C235.181 101.911 235.776 100.175 235.777 98.3641V97.2714C235.775 95.4607 235.18 93.725 234.122 92.4447C233.064 91.1644 231.629 90.444 230.133 90.4415Z" fill="#E4E4E4"/>
<path d="M219.559 104.923H213.69V145.922H219.559V104.923Z" fill="#E4E4E4"/>
<path d="M196.985 145.672C196.985 146.44 205.879 145.969 216.851 145.969C227.822 145.969 236.716 146.44 236.716 145.672C236.716 144.905 227.822 138.819 216.851 138.819C205.879 138.819 196.985 144.905 196.985 145.672Z" fill="#E4E4E4"/>
<path d="M193.043 140.988L188.675 140.987L186.597 120.597L193.043 120.597L193.043 140.988Z" fill="#FFB6B6"/>
<path d="M194.157 146.112L180.072 146.111V145.896C180.072 144.136 180.65 142.449 181.678 141.205C182.706 139.96 184.1 139.261 185.554 139.261H185.555L194.157 139.262L194.157 146.112Z" fill="#2F2E41"/>
<path d="M180.133 140.988L175.764 140.987L173.686 120.597L180.133 120.597L180.133 140.988Z" fill="#FFB6B6"/>
<path d="M181.246 146.112L167.162 146.111V145.896C167.162 144.136 167.74 142.449 168.768 141.205C169.796 139.96 171.19 139.261 172.644 139.261H172.644L181.247 139.262L181.246 146.112Z" fill="#2F2E41"/>
<path d="M219.261 23.5983C223.456 23.5983 226.856 19.4831 226.856 14.4067C226.856 9.33038 223.456 5.21518 219.261 5.21518C215.066 5.21518 211.666 9.33038 211.666 14.4067C211.666 19.4831 215.066 23.5983 219.261 23.5983Z" fill="#FFB6B6"/>
<path d="M231.553 77.3837C231.553 77.3837 234.102 93.6917 224.406 95.7684C214.71 97.8451 200.713 99.3046 200.713 99.3046L194.428 134.794L185.984 133.882C185.984 133.882 187.107 91.1603 189.869 87.8179C192.63 84.4756 210.086 74.4677 210.086 74.4677L231.553 77.3837Z" fill="#2F2E41"/>
<path d="M212.616 70.549L208.376 75.6974C208.376 75.6974 177.756 81.6662 176.575 90.2249C174.792 103.147 172.685 131.246 172.685 131.246L181.891 130.41L185.502 98.469L200.231 94.4142L216.989 83.3614L212.616 70.549Z" fill="#2F2E41"/>
<path d="M226.57 8.92007C225.82 7.20816 224.867 3.79633 223.354 3.16357C222.514 2.82634 221.645 2.60241 220.764 2.49586L218.192 3.6931L219.592 2.37547C219.319 2.35582 219.047 2.33975 218.775 2.32728L217.039 3.13506L217.927 2.29933C216.309 2.27923 214.639 2.48282 213.385 3.67481C212.317 4.69098 211.258 8.54042 211.087 10.1721C210.904 11.7331 210.968 13.3219 211.275 14.8539L211.715 15.3597C211.869 14.933 211.984 14.4877 212.06 14.0314C212.217 13.1786 212.52 12.375 212.948 11.6716C213.377 10.9683 213.921 10.3806 214.548 9.94616L214.572 9.92983C215.309 9.42776 216.203 9.45091 217.049 9.48772L221.063 9.66256C222.029 9.70463 223.069 9.77859 223.822 10.5118C224.301 11.0527 224.677 11.7125 224.925 12.4458C225.3 13.3598 226.031 16.807 226.031 16.807C226.031 16.807 226.444 16.1563 226.643 16.6406C226.961 15.377 227.154 14.0723 227.219 12.7537C227.282 11.4292 227.058 10.1077 226.57 8.92007Z" fill="#2F2E41"/>
<path d="M253.133 18.4433C252.649 18.4819 252.177 18.6486 251.752 18.9316C251.326 19.2146 250.957 19.6071 250.671 20.0815C250.384 20.5558 250.187 21.1004 250.093 21.6769C249.999 22.2534 250.011 22.8478 250.127 23.4182L244.02 28.8705L245.852 34.1703L254.388 26.3241C255.167 26.0237 255.828 25.388 256.245 24.5375C256.663 23.6869 256.808 22.6806 256.653 21.7092C256.498 20.7377 256.055 19.8687 255.406 19.2668C254.757 18.6649 253.949 18.3719 253.133 18.4433Z" fill="#FFB6B6"/>
<path d="M252.15 29.574L236.839 50.1531C236.839 50.1531 229.518 47.3164 223.855 44.241L221.311 34.7851C220.72 32.5915 220.468 30.285 220.567 27.9809C228.417 25.4529 237.548 34.8592 237.548 34.8592L249.009 23.9948L252.15 29.574Z" fill="#8B3CF1"/>
<path d="M216.424 78.9037C213.693 77.7617 210.868 76.581 207.821 76.1377L207.691 76.1185L207.727 75.9653C210.88 62.5638 210.093 53.991 208.548 41.1135C208.219 38.3359 208.641 35.504 209.752 33.0407C210.862 30.5774 212.601 28.6147 214.709 27.4455L214.727 27.4353L223.429 26.7661L223.449 26.7646L229.777 29.0172C230.688 29.3436 231.484 30.0223 232.046 30.9492C232.607 31.8761 232.901 33.0001 232.884 34.149C232.816 38.384 232.961 43.1122 233.115 48.118C233.46 59.3482 233.817 70.9607 231.791 78.4953L231.78 78.5347L231.753 78.5604C229.891 80.3965 227.557 81.3887 225.154 81.3658C222.314 81.3657 219.415 80.154 216.424 78.9037Z" fill="#8B3CF1"/>
<path d="M279.595 147H0.404625C0.297312 147 0.194395 146.948 0.118514 146.857C0.0426319 146.765 0 146.64 0 146.51C0 146.38 0.0426319 146.256 0.118514 146.164C0.194395 146.072 0.297312 146.021 0.404625 146.021H279.595C279.703 146.021 279.806 146.072 279.881 146.164C279.957 146.256 280 146.38 280 146.51C280 146.64 279.957 146.765 279.881 146.857C279.806 146.948 279.703 147 279.595 147Z" fill="#CCCCCC"/>
<path d="M149.672 29.368L155.864 22.792C156.376 22.248 156.792 21.76 157.112 21.328C157.432 20.896 157.664 20.488 157.808 20.104C157.952 19.72 158.024 19.328 158.024 18.928C158.024 18.176 157.776 17.592 157.28 17.176C156.8 16.744 156.184 16.528 155.432 16.528C154.632 16.528 153.928 16.728 153.32 17.128C152.712 17.528 152.168 18.152 151.688 19L149.768 17.416C150.424 16.28 151.232 15.424 152.192 14.848C153.152 14.256 154.264 13.96 155.528 13.96C156.568 13.96 157.48 14.168 158.264 14.584C159.048 15 159.656 15.584 160.088 16.336C160.52 17.072 160.736 17.928 160.736 18.904C160.736 19.608 160.648 20.24 160.472 20.8C160.312 21.344 160.032 21.896 159.632 22.456C159.232 23 158.68 23.64 157.976 24.376L153.224 29.296L149.672 29.368ZM149.672 31V29.368L152.048 28.528H161.072V31H149.672ZM165.968 31V14.2H168.68V31H165.968ZM162.608 16.672V14.2H168.44V16.672H162.608ZM176.444 31.24C175.276 31.24 174.236 31.04 173.324 30.64C172.412 30.224 171.644 29.624 171.02 28.84L172.892 26.968C173.228 27.48 173.7 27.888 174.308 28.192C174.932 28.496 175.628 28.648 176.396 28.648C177.1 28.648 177.716 28.52 178.244 28.264C178.772 28.008 179.188 27.64 179.492 27.16C179.796 26.68 179.948 26.112 179.948 25.456C179.948 24.768 179.796 24.2 179.492 23.752C179.204 23.288 178.812 22.944 178.316 22.72C177.836 22.48 177.316 22.36 176.756 22.36C176.116 22.36 175.54 22.432 175.028 22.576C174.532 22.72 174.044 22.976 173.564 23.344L173.636 21.616C173.892 21.28 174.188 21.008 174.524 20.8C174.86 20.576 175.252 20.408 175.7 20.296C176.148 20.184 176.676 20.128 177.284 20.128C178.468 20.128 179.46 20.376 180.26 20.872C181.076 21.368 181.692 22.032 182.108 22.864C182.524 23.68 182.732 24.592 182.732 25.6C182.732 26.688 182.46 27.656 181.916 28.504C181.388 29.352 180.652 30.024 179.708 30.52C178.764 31 177.676 31.24 176.444 31.24ZM173.564 23.344L172.052 21.832L172.796 14.2H175.316L174.452 22.144L173.564 23.344ZM173.276 16.672L172.796 14.2H181.796V16.672H173.276ZM187.578 31V14.2H190.29V31H187.578ZM184.218 16.672V14.2H190.05V16.672H184.218Z" fill="#8B3CF1"/>
</svg>
