<svg width="289" height="216" viewBox="0 0 289 216" fill="none" xmlns="http://www.w3.org/2000/svg">
<g clip-path="url(#clip0_30_130)">
<path d="M220.722 161.99L200.408 153.042V145.35L207.648 145.309C208.771 145.303 209.864 144.945 210.774 144.287C211.683 143.629 212.363 142.702 212.719 141.638L217.804 126.405C218.074 125.598 218.147 124.739 218.019 123.898C217.89 123.057 217.564 122.259 217.065 121.569C216.567 120.879 215.912 120.317 215.153 119.929C214.395 119.541 213.555 119.339 212.703 119.339H200.408V112.181H215.843C217.06 112.181 218.241 111.769 219.193 111.012C220.144 110.256 220.811 109.199 221.084 108.015L224.586 92.8041C224.767 92.0174 224.768 91.2001 224.589 90.4128C224.41 89.6256 224.056 88.8889 223.552 88.2574C223.049 87.6258 222.409 87.1158 221.681 86.7653C220.952 86.4148 220.154 86.2327 219.346 86.2327H200.408V84.4432C200.408 83.9732 200.316 83.5078 200.135 83.0736C199.955 82.6393 199.691 82.2448 199.358 81.9124C199.025 81.5801 198.63 81.3164 198.195 81.1366C197.76 80.9567 197.294 80.8641 196.824 80.8641C196.353 80.8641 195.887 80.9567 195.452 81.1366C195.017 81.3164 194.622 81.5801 194.289 81.9124C193.956 82.2448 193.692 82.6393 193.512 83.0736C193.331 83.5078 193.239 83.9732 193.239 84.4432V86.2327H66.278V84.4432C66.278 83.494 65.9004 82.5836 65.2281 81.9124C64.5558 81.2412 63.644 80.8641 62.6933 80.8641C61.7425 80.8641 60.8307 81.2412 60.1584 81.9124C59.4862 82.5836 59.1085 83.494 59.1085 84.4432V86.2327H44.0547C43.2461 86.2327 42.448 86.4148 41.7197 86.7653C40.9914 87.1158 40.3516 87.6258 39.848 88.2574C39.3444 88.8889 38.9899 89.6256 38.8109 90.4128C38.6319 91.2001 38.633 92.0174 38.8142 92.8041L42.3165 108.015C42.5891 109.199 43.2558 110.256 44.2077 111.012C45.1596 111.769 46.3403 112.181 47.557 112.181H59.1085V119.339H50.6969C49.8494 119.339 49.0139 119.539 48.2586 119.923C47.5033 120.306 46.8495 120.863 46.3505 121.547C45.8516 122.231 45.5216 123.023 45.3875 123.858C45.2534 124.694 45.3189 125.549 45.5789 126.354L50.7697 142.438C51.1202 143.524 51.8083 144.471 52.734 145.14C53.6597 145.809 54.775 146.167 55.9179 146.16L59.1085 146.142V153.042L42.6783 161.99C41.9721 161.99 41.2729 162.129 40.6205 162.398C39.9681 162.668 39.3754 163.064 38.8761 163.562C38.3767 164.061 37.9807 164.653 37.7104 165.304C37.4402 165.955 37.3011 166.653 37.3011 167.358C37.3011 168.782 37.8676 170.148 38.8761 171.155C39.8845 172.161 41.2522 172.727 42.6783 172.727H59.1085V212.097C59.1085 213.046 59.4862 213.956 60.1584 214.628C60.8307 215.299 61.7425 215.676 62.6933 215.676C63.644 215.676 64.5558 215.299 65.2281 214.628C65.9004 213.956 66.278 213.046 66.278 212.097V172.727H193.239V212.097C193.239 213.046 193.616 213.956 194.289 214.628C194.961 215.299 195.873 215.676 196.824 215.676C197.774 215.676 198.686 215.299 199.358 214.628C200.031 213.956 200.408 213.046 200.408 212.097V172.727H220.722C222.148 172.727 223.516 172.161 224.524 171.155C225.533 170.148 226.099 168.782 226.099 167.358C226.099 166.653 225.96 165.955 225.69 165.304C225.42 164.653 225.024 164.061 224.524 163.562C224.025 163.064 223.432 162.668 222.78 162.398C222.127 162.129 221.428 161.99 220.722 161.99ZM66.278 112.181H193.239V119.339H66.278V112.181ZM66.278 153.042V146.102L193.239 145.39V153.042H66.278Z" fill="#E6E6E6"/>
<path d="M206.034 161.964C208.267 144.036 219.395 126.372 236.52 120.538C229.767 138.991 229.768 159.234 236.524 177.686C239.156 184.793 242.824 192.423 240.349 199.586C238.809 204.043 235.041 207.452 230.83 209.584C226.618 211.716 221.944 212.733 217.328 213.728L216.42 214.479C209.093 197.96 203.801 179.892 206.034 161.964Z" fill="#E6E6E6"/>
<path d="M236.69 120.877C226.819 131.913 220.415 146.169 218.975 160.917C218.664 164.106 218.626 167.368 219.324 170.51C220.023 173.655 221.544 176.293 223.702 178.661C225.675 180.825 227.944 182.811 229.356 185.416C230.844 188.162 230.901 191.283 229.882 194.2C228.636 197.769 226.179 200.678 223.678 203.44C220.901 206.506 217.967 209.647 216.787 213.712C216.644 214.204 215.887 213.954 216.03 213.462C218.084 206.39 224.96 202.372 228.239 196.002C229.769 193.03 230.411 189.579 228.977 186.442C227.723 183.698 225.384 181.649 223.368 179.474C221.25 177.192 219.627 174.687 218.79 171.664C217.935 168.573 217.845 165.303 218.073 162.12C218.644 154.907 220.348 147.829 223.122 141.144C226.245 133.498 230.656 126.441 236.163 120.279C236.504 119.898 237.029 120.498 236.69 120.877Z" fill="white"/>
<path d="M219.19 156.099C216.726 155.501 214.554 154.049 213.064 152.001C211.573 149.952 210.86 147.442 211.052 144.917C211.093 144.407 211.889 144.446 211.849 144.957C211.665 147.308 212.33 149.646 213.722 151.551C215.114 153.455 217.142 154.8 219.44 155.343C219.939 155.461 219.686 156.217 219.19 156.099Z" fill="white"/>
<path d="M222.557 177.695C227.008 175.042 230.293 170.811 231.759 165.846C231.903 165.354 232.661 165.604 232.516 166.096C230.981 171.259 227.553 175.655 222.915 178.406C222.473 178.668 222.117 177.955 222.557 177.695Z" fill="white"/>
<path d="M226.985 134.252C227.891 134.682 228.889 134.88 229.89 134.829C230.891 134.778 231.863 134.48 232.72 133.961C233.159 133.694 233.515 134.407 233.079 134.673C232.129 135.241 231.055 135.569 229.949 135.628C228.843 135.686 227.74 135.474 226.735 135.008C226.637 134.972 226.556 134.9 226.509 134.807C226.462 134.713 226.452 134.606 226.482 134.505C226.515 134.405 226.587 134.323 226.681 134.275C226.776 134.228 226.885 134.219 226.985 134.252Z" fill="white"/>
<path d="M288.72 152.559C288.451 152.734 288.182 152.909 287.912 153.09C284.306 155.458 280.898 158.114 277.722 161.033C277.473 161.255 277.224 161.484 276.982 161.712C269.406 168.826 263.219 177.282 258.735 186.65C256.954 190.38 255.46 194.24 254.265 198.196C252.616 203.659 251.263 209.714 247.999 214.183C247.663 214.653 247.299 215.102 246.908 215.527H217.407C217.34 215.493 217.273 215.466 217.205 215.433L216.027 215.486C216.075 215.278 216.128 215.063 216.176 214.855C216.202 214.734 216.236 214.613 216.263 214.492C216.283 214.411 216.303 214.331 216.317 214.257C216.323 214.23 216.33 214.203 216.337 214.183C216.35 214.109 216.371 214.042 216.384 213.974C216.68 212.772 216.985 211.569 217.3 210.366C217.3 210.359 217.3 210.359 217.306 210.352C219.723 201.193 222.926 192.154 227.402 183.888C227.537 183.64 227.671 183.384 227.82 183.136C229.858 179.421 232.197 175.879 234.813 172.545C236.252 170.724 237.781 168.977 239.397 167.31C243.579 163.012 248.413 159.397 253.72 156.598C264.301 151.02 276.551 148.883 287.859 152.29C288.148 152.378 288.431 152.465 288.72 152.559Z" fill="#E6E6E6"/>
<path d="M288.654 152.933C274.117 155.811 260.407 163.344 250.364 174.255C248.193 176.614 246.195 179.195 244.858 182.124C243.519 185.055 243.142 188.075 243.438 191.263C243.708 194.177 244.322 197.126 243.878 200.055C243.41 203.143 241.574 205.668 239.002 207.385C235.855 209.486 232.139 210.332 228.477 211.033C224.41 211.812 220.174 212.556 216.78 215.092C216.369 215.4 215.915 214.745 216.326 214.438C222.231 210.026 230.143 210.952 236.603 207.837C239.617 206.383 242.211 204.014 242.958 200.647C243.61 197.702 242.98 194.66 242.68 191.712C242.366 188.616 242.58 185.64 243.735 182.724C244.916 179.741 246.817 177.076 248.918 174.673C253.724 169.257 259.353 164.629 265.598 160.96C272.703 156.732 280.48 153.749 288.593 152.139C289.095 152.04 289.153 152.834 288.654 152.933Z" fill="white"/>
<path d="M253.441 170.536C251.834 168.578 250.976 166.113 251.021 163.582C251.065 161.05 252.01 158.617 253.686 156.717C254.026 156.333 254.639 156.844 254.298 157.227C252.734 158.994 251.855 161.261 251.818 163.618C251.781 165.975 252.589 168.268 254.097 170.083C254.424 170.478 253.766 170.929 253.441 170.536Z" fill="white"/>
<path d="M243.106 189.803C248.26 190.36 253.435 188.957 257.598 185.874C258.011 185.568 258.464 186.223 258.052 186.529C253.714 189.729 248.325 191.178 242.963 190.587C242.452 190.53 242.598 189.747 243.106 189.803Z" fill="white"/>
<path d="M272.839 157.779C273.303 158.666 273.98 159.424 274.81 159.985C275.64 160.547 276.596 160.893 277.594 160.994C278.105 161.044 277.959 161.827 277.451 161.778C276.35 161.661 275.294 161.277 274.376 160.659C273.458 160.041 272.705 159.208 272.184 158.232C272.127 158.144 272.106 158.038 272.124 157.935C272.143 157.832 272.2 157.741 272.284 157.678C272.372 157.619 272.479 157.596 272.583 157.615C272.686 157.633 272.779 157.692 272.839 157.779Z" fill="white"/>
<path d="M6.92519 177.884C8.49456 165.284 16.3155 152.87 28.3507 148.77C23.6044 161.738 23.6054 175.965 28.3536 188.933C30.203 193.927 32.7808 199.29 31.0412 204.324C29.9589 207.456 27.3111 209.852 24.3514 211.351C21.3915 212.849 18.1067 213.563 14.863 214.263L14.2246 214.79C9.0752 203.181 5.35581 190.483 6.92519 177.884Z" fill="#E6E6E6"/>
<path d="M28.4702 149.008C21.4614 156.849 17.1052 166.695 16.0204 177.148C15.8017 179.389 15.7751 181.681 16.2658 183.89C16.7606 186.039 17.8228 188.017 19.3421 189.618C20.7287 191.139 22.3234 192.535 23.3155 194.366C24.3612 196.296 24.4014 198.488 23.6855 200.539C22.8096 203.047 21.0832 205.091 19.3253 207.032C17.3735 209.187 15.3121 211.394 14.4824 214.251C14.3819 214.597 13.8498 214.421 13.9502 214.076C15.3937 209.105 20.2261 206.282 22.5308 201.805C23.6061 199.717 24.0575 197.291 23.0494 195.086C22.1678 193.158 20.5245 191.718 19.1072 190.19C17.6191 188.585 16.478 186.825 15.8902 184.701C15.2889 182.528 15.2258 180.23 15.3862 177.993C15.7878 172.924 16.9853 167.95 18.9347 163.252C21.1297 157.878 24.2293 152.919 28.0993 148.589C28.3389 148.321 28.7082 148.742 28.4702 149.008Z" fill="white"/>
<path d="M16.1713 173.762C14.4394 173.342 12.9134 172.321 11.8657 170.882C10.8181 169.442 10.317 167.678 10.452 165.904C10.4806 165.545 11.0405 165.572 11.0119 165.932C10.8832 167.584 11.35 169.227 12.3284 170.565C13.3067 171.904 14.732 172.849 16.347 173.23C16.6979 173.314 16.5202 173.845 16.1713 173.762Z" fill="white"/>
<path d="M18.5373 188.939C21.6653 187.075 23.9745 184.101 25.0043 180.612C25.106 180.266 25.6381 180.442 25.5365 180.788C24.4581 184.416 22.0488 187.506 18.7894 189.439C18.4786 189.623 18.2282 189.122 18.5373 188.939Z" fill="white"/>
<path d="M21.6497 158.408C22.2859 158.71 22.9872 158.85 23.6907 158.814C24.3942 158.778 25.0778 158.569 25.6801 158.204C25.9884 158.016 26.2385 158.517 25.9322 158.704C25.2648 159.104 24.5096 159.334 23.7324 159.375C22.9553 159.416 22.1799 159.267 21.474 158.94C21.4048 158.914 21.3479 158.864 21.3148 158.798C21.2817 158.733 21.2749 158.657 21.2957 158.586C21.3193 158.516 21.3698 158.458 21.436 158.425C21.5023 158.391 21.5791 158.385 21.6497 158.408Z" fill="white"/>
<path d="M65.0359 171.274C64.8467 171.397 64.6575 171.52 64.4681 171.647C61.9335 173.311 59.5384 175.178 57.3066 177.23C57.1315 177.386 56.9565 177.546 56.7862 177.707C51.462 182.706 47.1138 188.649 43.9624 195.233C42.7109 197.854 41.6608 200.567 40.8215 203.347C39.6624 207.186 38.7118 211.442 36.4175 214.582C36.1818 214.913 35.9259 215.228 35.6511 215.527H14.9182C14.8711 215.503 14.8237 215.484 14.7764 215.461L13.9486 215.498C13.9818 215.352 14.0195 215.201 14.0527 215.054C14.0717 214.969 14.0952 214.884 14.1142 214.799C14.1283 214.743 14.1426 214.686 14.1521 214.634C14.1567 214.615 14.1615 214.596 14.1662 214.582C14.1756 214.53 14.1899 214.483 14.1994 214.436C14.4075 213.59 14.6219 212.745 14.8427 211.9C14.8427 211.895 14.8427 211.895 14.8473 211.89C16.5456 205.453 18.7971 199.101 21.9427 193.292C22.0374 193.117 22.1319 192.938 22.2361 192.763C23.6685 190.152 25.3123 187.663 27.1509 185.32C28.1619 184.04 29.237 182.812 30.3723 181.641C33.3115 178.62 36.7084 176.08 40.4383 174.113C47.8744 170.193 56.4834 168.691 64.4305 171.085C64.6337 171.147 64.8326 171.208 65.0359 171.274Z" fill="#E6E6E6"/>
<path d="M64.9893 171.537C54.665 173.584 45.2494 178.827 38.0797 186.522C36.5537 188.179 35.1502 189.993 34.21 192.052C33.309 194.066 32.9645 196.283 33.2122 198.475C33.4021 200.523 33.8339 202.595 33.5219 204.654C33.1929 206.823 31.9027 208.598 30.0948 209.805C27.8828 211.281 25.2715 211.876 22.6976 212.369C19.8398 212.916 16.8627 213.439 14.4776 215.222C14.1886 215.437 13.8699 214.977 14.1585 214.761C18.3082 211.661 23.8691 212.311 28.4088 210.122C30.5271 209.101 32.3499 207.436 32.8746 205.069C33.3335 203 32.8901 200.862 32.6799 198.79C32.4591 196.614 32.6096 194.523 33.4211 192.474C34.2513 190.377 35.5867 188.505 37.0635 186.815C40.4411 183.009 44.3969 179.757 48.7863 177.178C53.7795 174.207 59.2449 172.11 64.9462 170.979C65.2991 170.909 65.3399 171.468 64.9893 171.537Z" fill="white"/>
<path d="M40.2422 183.908C39.1126 182.532 38.5097 180.8 38.5412 179.021C38.5728 177.242 39.2367 175.532 40.4144 174.196C40.6537 173.927 41.0842 174.285 40.8446 174.555C39.7456 175.797 39.1273 177.389 39.1014 179.046C39.0754 180.703 39.6434 182.314 40.703 183.59C40.9329 183.867 40.4709 184.184 40.2422 183.908Z" fill="white"/>
<path d="M32.979 197.449C36.601 197.84 40.2377 196.854 43.164 194.688C43.4537 194.473 43.7725 194.933 43.4831 195.148C40.4338 197.397 36.6471 198.415 32.8788 197.999C32.5197 197.96 32.6218 197.409 32.979 197.449Z" fill="white"/>
<path d="M53.875 174.943C54.201 175.566 54.6769 176.099 55.2601 176.493C55.8433 176.888 56.5155 177.131 57.2162 177.202C57.5757 177.237 57.4733 177.788 57.1161 177.753C56.3422 177.671 55.6002 177.401 54.9549 176.967C54.3096 176.532 53.7806 175.947 53.4142 175.261C53.3743 175.199 53.3594 175.125 53.3725 175.053C53.3857 174.98 53.4259 174.916 53.485 174.872C53.5463 174.83 53.6216 174.814 53.6946 174.827C53.7676 174.84 53.8324 174.882 53.875 174.943Z" fill="white"/>
<path d="M110.296 208.871L104.952 210.415L96.4456 190.57L104.333 188.291L110.296 208.871Z" fill="#9E616A"/>
<path d="M123.077 136.95L117.564 142.822C117.564 142.822 88.5263 155.666 88.5263 162.272C88.5263 168.877 95.51 197.501 98.4504 199.703C100.222 201.037 99.4209 202.473 100.3 204.506L110.58 200.804C110.58 200.804 109.845 198.602 110.58 197.501C111.315 196.4 110.58 195.666 110.58 195.666C110.58 195.666 109.477 196.033 109.845 194.932C110.212 193.831 110.212 193.464 109.845 193.097C109.477 192.73 108.375 189.428 108.375 189.428C108.375 189.428 108.742 176.217 103.596 171.446C103.596 171.446 127.488 164.473 130.428 159.703C133.369 154.932 134.104 137.684 134.104 137.684L123.077 136.95Z" fill="#2F2E41"/>
<path d="M112.475 211.913L94.6673 215.583L94.6208 215.358C94.2415 213.522 94.6079 211.612 95.6394 210.046C96.6709 208.481 98.2831 207.388 100.121 207.009L100.122 207.009L102.865 203.875L109.443 205.089L110.998 204.768L112.475 211.913Z" fill="#2F2E41"/>
<path d="M129.737 186.582L122.917 191.147L137.066 207.47L141.687 204.377L129.737 186.582Z" fill="#9E616A"/>
<path d="M139.924 126.835C136.281 119.166 147.385 141.841 145.915 148.863C144.767 154.347 123.326 171.805 123.326 171.805C129.786 174.553 133.923 187.107 133.923 187.107C133.923 187.107 136.081 189.842 136.551 190.063C137.022 190.284 137.146 190.629 137.174 191.789C137.202 192.949 138.115 192.231 138.115 192.231C138.115 192.231 139.055 192.673 138.737 193.958C138.419 195.242 139.858 197.065 139.858 197.065L131.911 204.462C130.394 202.846 130.191 200.787 128.072 200.132C124.558 199.055 108.275 174.485 106.034 168.27C103.793 162.055 126.755 140.149 126.755 140.149L128.705 129.307L139.924 126.835Z" fill="#2F2E41"/>
<path d="M144.016 209.851L126.908 216L126.83 215.784C126.194 214.021 126.286 212.078 127.085 210.382C127.884 208.686 129.325 207.377 131.091 206.742L131.092 206.742L133.363 203.252L140.047 203.523L141.541 202.986L144.016 209.851Z" fill="#2F2E41"/>
<path d="M126.886 90.2047L121.934 93.9696L108.779 97.448C108.779 97.448 113.493 130.478 111.268 132.699C109.043 134.92 111.05 134.98 110.603 137.865C110.156 140.751 109.069 146.666 109.069 146.666C124.086 154.602 137.032 154.815 147.432 145.528C147.565 144.953 147.497 144.351 147.24 143.82C146.983 143.289 146.552 142.862 146.018 142.609C144.083 141.584 147.803 136.798 146.221 135.998C144.639 135.198 146.864 128.256 146.864 128.256L151.685 105.531L138.861 95.5131L136.911 90.8215L126.886 90.2047Z" fill="#8B3CF1"/>
<path d="M133.066 119.719C134.012 119.719 134.779 118.954 134.779 118.009C134.779 117.064 134.012 116.298 133.066 116.298C132.119 116.298 131.352 117.064 131.352 118.009C131.352 118.954 132.119 119.719 133.066 119.719Z" fill="#F2F2F2"/>
<path d="M131.956 88.1092C137.366 88.1092 141.752 83.7305 141.752 78.3291C141.752 72.9276 137.366 68.5489 131.956 68.5489C126.546 68.5489 122.16 72.9276 122.16 78.3291C122.16 83.7305 126.546 88.1092 131.956 88.1092Z" fill="#9E616A"/>
<path opacity="0.1" d="M146.221 116.644L147.84 117.857L148.649 112.199L146.221 116.644Z" fill="black"/>
<path d="M109.555 97.4159C109.555 97.4159 107.531 97.0117 106.317 100.649C105.102 104.286 99.0067 123.439 99.0067 125.864C99.0067 128.289 128.379 133.575 128.379 133.575L125.493 123.47L112.151 119.302L109.555 97.4159Z" fill="#8B3CF1"/>
<path d="M129.665 132.077C132.276 132.077 134.392 129.964 134.392 127.357C134.392 124.75 132.276 122.637 129.665 122.637C127.054 122.637 124.937 124.75 124.937 127.357C124.937 129.964 127.054 132.077 129.665 132.077Z" fill="#9E616A"/>
<path opacity="0.1" d="M113.02 114.493L113.391 119.499L125.135 125.653L114.689 118.658L113.02 114.493Z" fill="black"/>
<path d="M140.656 112.522H140.504V108.355C140.504 108.038 140.441 107.725 140.32 107.432C140.198 107.139 140.02 106.874 139.796 106.65C139.572 106.426 139.305 106.248 139.012 106.127C138.719 106.006 138.405 105.943 138.088 105.943H129.245C128.928 105.943 128.614 106.006 128.321 106.127C128.028 106.248 127.762 106.426 127.537 106.65C127.313 106.874 127.135 107.139 127.014 107.432C126.892 107.725 126.83 108.038 126.83 108.355V131.216C126.83 131.533 126.892 131.846 127.014 132.139C127.135 132.431 127.313 132.697 127.537 132.921C127.762 133.145 128.028 133.323 128.321 133.444C128.614 133.565 128.928 133.628 129.245 133.628H138.088C138.405 133.628 138.719 133.565 139.012 133.444C139.305 133.323 139.572 133.145 139.796 132.921C140.02 132.697 140.198 132.431 140.32 132.139C140.441 131.846 140.504 131.533 140.504 131.216V115.488H140.656V112.522Z" fill="#F0F0F0"/>
<path d="M151.685 105.531C151.685 105.531 152.9 106.339 153.709 109.976C154.519 113.613 159.781 127.354 157.757 130.587C155.733 133.82 155.136 137.271 148.254 132.421L138.732 123.717L145.614 117.251L148.447 119.271L151.685 105.531Z" fill="#8B3CF1"/>
<path d="M133.775 116.132C134.892 116.132 135.799 115.228 135.799 114.112C135.799 112.996 134.892 112.091 133.775 112.091C132.657 112.091 131.751 112.996 131.751 114.112C131.751 115.228 132.657 116.132 133.775 116.132Z" fill="#8B3CF1"/>
<path d="M139.633 123.259C142.244 123.259 144.361 121.145 144.361 118.538C144.361 115.932 142.244 113.818 139.633 113.818C137.023 113.818 134.906 115.932 134.906 118.538C134.906 121.145 137.023 123.259 139.633 123.259Z" fill="#9E616A"/>
<path opacity="0.1" d="M111.388 130.296L125.975 133.023L111.773 133.567L111.388 130.296Z" fill="black"/>
<path d="M140.581 71.8681C140.581 71.8681 143.131 67.0002 137.52 66.5576C137.52 66.5576 132.737 62.2253 127.861 65.7656C127.861 65.7656 125.202 65.7656 123.747 68.7703C123.747 68.7703 121.656 67.9783 121.196 70.098C121.196 70.098 119.665 74.5234 121.196 78.5063C122.726 82.4891 123.235 82.9317 123.235 82.9317C123.235 82.9317 122.161 77.9891 128.283 77.5466C134.404 77.104 140.02 73.2752 140.531 78.1431C141.041 83.0111 141.602 80.812 141.602 80.812C141.602 80.812 146.447 73.8596 140.581 71.8681Z" fill="#2F2E41"/>
<path d="M235.723 61.3651H156.422C155.206 61.3651 154.04 61.8473 153.18 62.7056C152.321 63.5639 151.838 64.728 151.838 65.9418V84.9836C151.838 86.1974 152.321 87.3615 153.18 88.2198C154.04 89.0781 155.206 89.5603 156.422 89.5603H157.586V93.0005C157.586 93.2093 157.648 93.4134 157.764 93.5869C157.88 93.7605 158.045 93.8958 158.238 93.9757C158.432 94.0555 158.644 94.0765 158.849 94.0357C159.054 93.995 159.243 93.8945 159.39 93.7469L163.584 89.5603H235.723C236.939 89.5603 238.105 89.0781 238.964 88.2198C239.824 87.3615 240.307 86.1974 240.307 84.9836V65.9418C240.307 65.3408 240.188 64.7457 239.958 64.1904C239.728 63.6351 239.39 63.1306 238.964 62.7056C238.539 62.2806 238.033 61.9435 237.477 61.7135C236.921 61.4835 236.325 61.3651 235.723 61.3651Z" fill="#3F3D56"/>
<path d="M235.723 87.2378H156.422C155.823 87.2371 155.249 86.9994 154.826 86.5768C154.403 86.1542 154.165 85.5813 154.164 84.9836V65.9418C154.165 65.3442 154.403 64.7712 154.826 64.3486C155.249 63.926 155.823 63.6883 156.422 63.6876H216.651C222.306 63.694 227.728 65.9398 231.726 69.9322C235.725 73.9246 237.974 79.3376 237.981 84.9836C237.98 85.5813 237.742 86.1542 237.319 86.5768C236.895 86.9994 236.321 87.2371 235.723 87.2378Z" fill="white"/>
<path d="M213.103 67.8525H179.208C178.492 67.8525 177.912 68.4319 177.912 69.1466V69.5525C177.912 70.2673 178.492 70.8467 179.208 70.8467H213.103C213.819 70.8467 214.399 70.2673 214.399 69.5525V69.1466C214.399 68.4319 213.819 67.8525 213.103 67.8525Z" fill="#8B3CF1"/>
<path d="M220.226 73.8409H172.086C171.37 73.8409 170.789 74.4202 170.789 75.135V75.5409C170.789 76.2556 171.37 76.835 172.086 76.835H220.226C220.941 76.835 221.522 76.2556 221.522 75.5409V75.135C221.522 74.4202 220.941 73.8409 220.226 73.8409Z" fill="#E6E6E6"/>
<path d="M220.226 79.8292H172.086C171.37 79.8292 170.789 80.4086 170.789 81.1234V81.5293C170.789 82.244 171.37 82.8234 172.086 82.8234H220.226C220.941 82.8234 221.522 82.244 221.522 81.5293V81.1234C221.522 80.4086 220.941 79.8292 220.226 79.8292Z" fill="#E6E6E6"/>
<path d="M285.427 0H223.615C223.146 -3.91675e-07 222.681 0.0922723 222.247 0.271551C221.814 0.450829 221.42 0.713602 221.088 1.04487C220.757 1.37613 220.493 1.7694 220.314 2.20221C220.134 2.63503 220.042 3.09892 220.042 3.5674V18.4097C220.042 18.8782 220.134 19.3421 220.314 19.7749C220.493 20.2077 220.757 20.601 221.088 20.9322C221.42 21.2635 221.814 21.5263 222.247 21.7056C222.681 21.8848 223.146 21.9771 223.615 21.9771H224.522V24.6586C224.522 24.8213 224.57 24.9804 224.661 25.1157C224.752 25.251 224.88 25.3564 225.031 25.4187C225.181 25.481 225.347 25.4973 225.507 25.4655C225.667 25.4338 225.814 25.3554 225.929 25.2404L229.197 21.9771H285.427C285.896 21.9771 286.361 21.8848 286.794 21.7056C287.228 21.5263 287.622 21.2635 287.954 20.9322C288.285 20.601 288.548 20.2077 288.728 19.7749C288.908 19.3421 289 18.8782 289 18.4097V3.5674C289 3.09892 288.908 2.63503 288.728 2.20221C288.548 1.7694 288.285 1.37613 287.953 1.04487C287.622 0.713602 287.228 0.450829 286.794 0.271551C286.361 0.0922723 285.896 -3.91675e-07 285.427 0Z" fill="#F2F2F2"/>
<path d="M285.427 20.1668H223.615C223.148 20.1663 222.701 19.981 222.371 19.6516C222.041 19.3222 221.855 18.8756 221.855 18.4098V3.56738C221.855 3.10154 222.041 2.65493 222.371 2.32553C222.701 1.99614 223.148 1.81085 223.615 1.81033H270.561C274.969 1.81534 279.195 3.56582 282.312 6.67774C285.429 9.78966 287.182 14.0089 287.187 18.4098C287.186 18.8756 287.001 19.3222 286.671 19.6516C286.341 19.981 285.893 20.1663 285.427 20.1668Z" fill="white"/>
<path d="M267.637 5.05667H241.534C240.889 5.05667 240.366 5.57912 240.366 6.2236V6.2236C240.366 6.86807 240.889 7.39052 241.534 7.39052H267.637C268.283 7.39052 268.806 6.86807 268.806 6.2236C268.806 5.57912 268.283 5.05667 267.637 5.05667Z" fill="#F2F2F2"/>
<path d="M273.189 9.72437H235.983C235.337 9.72437 234.814 10.2468 234.814 10.8913V10.8913C234.814 11.5358 235.337 12.0582 235.983 12.0582H273.189C273.834 12.0582 274.358 11.5358 274.358 10.8913C274.358 10.2468 273.834 9.72437 273.189 9.72437Z" fill="#F2F2F2"/>
<path d="M273.189 14.3921H235.983C235.337 14.3921 234.814 14.9145 234.814 15.559V15.559C234.814 16.2035 235.337 16.7259 235.983 16.7259H273.189C273.834 16.7259 274.358 16.2035 274.358 15.559C274.358 14.9145 273.834 14.3921 273.189 14.3921Z" fill="#F2F2F2"/>
<path d="M147.15 24.457H208.962C209.431 24.457 209.896 24.5493 210.329 24.7286C210.763 24.9078 211.157 25.1706 211.489 25.5019C211.82 25.8331 212.084 26.2264 212.263 26.6592C212.443 27.092 212.535 27.5559 212.535 28.0244V42.8667C212.535 43.3352 212.443 43.7991 212.263 44.2319C212.084 44.6647 211.82 45.058 211.489 45.3892C211.157 45.7205 210.763 45.9833 210.329 46.1626C209.896 46.3418 209.431 46.4341 208.962 46.4341H208.055V49.1156C208.055 49.2783 208.006 49.4374 207.916 49.5727C207.825 49.708 207.697 49.8134 207.546 49.8757C207.395 49.938 207.23 49.9543 207.07 49.9225C206.91 49.8908 206.763 49.8124 206.648 49.6974L203.38 46.4341H147.15C146.681 46.4341 146.216 46.3418 145.783 46.1626C145.349 45.9833 144.955 45.7205 144.623 45.3892C144.292 45.058 144.028 44.6647 143.849 44.2319C143.669 43.7991 143.577 43.3352 143.577 42.8667V28.0244C143.577 27.5559 143.669 27.092 143.849 26.6592C144.028 26.2264 144.292 25.8331 144.623 25.5019C144.955 25.1706 145.349 24.9078 145.783 24.7286C146.216 24.5493 146.681 24.457 147.15 24.457Z" fill="#F2F2F2"/>
<path d="M145.39 42.8668C145.395 38.4659 147.148 34.2467 150.265 31.1347C153.382 28.0228 157.608 26.2723 162.016 26.2673H208.962C209.429 26.2679 209.876 26.4531 210.206 26.7825C210.536 27.1119 210.721 27.5585 210.722 28.0244V42.8667C210.721 43.3326 210.536 43.7792 210.206 44.1086C209.876 44.438 209.429 44.6233 208.962 44.6238H147.15C146.683 44.6233 146.236 44.438 145.906 44.1086C145.576 43.7792 145.391 43.3326 145.39 42.8668Z" fill="white"/>
<path d="M164.94 31.8475L191.042 31.8475C191.688 31.8475 192.211 31.3251 192.211 30.6806C192.211 30.0361 191.688 29.5137 191.042 29.5137L164.94 29.5137C164.294 29.5137 163.771 30.0361 163.771 30.6806C163.771 31.3251 164.294 31.8475 164.94 31.8475Z" fill="#F2F2F2"/>
<path d="M159.388 36.5152L196.594 36.5152C197.24 36.5152 197.763 35.9928 197.763 35.3483V35.3483C197.763 34.7038 197.24 34.1814 196.594 34.1814L159.388 34.1814C158.742 34.1814 158.219 34.7038 158.219 35.3483C158.219 35.9928 158.742 36.5152 159.388 36.5152Z" fill="#F2F2F2"/>
<path d="M159.388 41.1829L196.594 41.1829C197.24 41.1829 197.763 40.6605 197.763 40.016C197.763 39.3715 197.24 38.8491 196.594 38.8491L159.388 38.8491C158.742 38.8491 158.219 39.3715 158.219 40.016C158.219 40.6605 158.742 41.1829 159.388 41.1829Z" fill="#F2F2F2"/>
<path d="M257.053 215.978H0.355691C0.261356 215.978 0.170885 215.941 0.104179 215.874C0.037474 215.808 0 215.717 0 215.623C0 215.529 0.037474 215.439 0.104179 215.372C0.170885 215.305 0.261356 215.268 0.355691 215.268H257.053C257.148 215.268 257.238 215.305 257.305 215.372C257.372 215.439 257.409 215.529 257.409 215.623C257.409 215.717 257.372 215.808 257.305 215.874C257.238 215.941 257.148 215.978 257.053 215.978Z" fill="#CCCCCC"/>
</g>
<defs>
<clipPath id="clip0_30_130">
<rect width="289" height="216" fill="white"/>
</clipPath>
</defs>
</svg>
