<svg width="16" height="16" viewBox="0 0 16 16" fill="none" xmlns="http://www.w3.org/2000/svg">
<path d="M5.92082 6.80004L9.73651 0.192276C8.55663 -0.0714727 7.33226 -0.0637854 6.15578 0.214757C4.97931 0.4933 3.88146 1.03542 2.94507 1.80022L5.87283 6.88004L5.92082 6.80004ZM15.632 5.60008C14.8961 3.26417 13.1122 1.39223 10.8324 0.528264L7.90466 5.60008H15.632ZM15.84 6.40006H9.8485L10.0805 6.80004L13.8882 13.3998C15.2493 11.9315 16.0039 10.0022 16 8C16 7.44802 15.944 6.92004 15.84 6.40006ZM5.23288 8L2.11314 2.60019C1.25612 3.52859 0.63218 4.6475 0.292805 5.86458C-0.0465697 7.08166 -0.091644 8.36201 0.161303 9.59994H6.1528L5.23288 8ZM0.369286 10.3999C1.10522 12.7358 2.88908 14.6078 5.16889 15.4717L8.09664 10.3999H0.369286ZM9.38453 10.3999L6.26479 15.8077C7.44467 16.0715 8.66904 16.0638 9.84552 15.7852C11.022 15.5067 12.1198 14.9646 13.0562 14.1998L10.1285 9.11996L9.38453 10.3999Z" fill="#7705F0"/>
</svg>
