<svg width="91" height="27" viewBox="0 0 91 27" fill="none" xmlns="http://www.w3.org/2000/svg">
<path d="M2.1945 24V7.056H5.9625V24H2.1945ZM5.0745 17.352V14.112H13.5465V17.352H5.0745ZM5.0745 10.296V7.056H13.9305V10.296H5.0745ZM20.5117 24.24C19.4398 24.24 18.4798 23.976 17.6318 23.448C16.7998 22.92 16.1358 22.2 15.6398 21.288C15.1598 20.376 14.9198 19.336 14.9198 18.168C14.9198 17 15.1598 15.96 15.6398 15.048C16.1358 14.136 16.7998 13.416 17.6318 12.888C18.4798 12.36 19.4398 12.096 20.5117 12.096C21.2958 12.096 21.9998 12.248 22.6238 12.552C23.2638 12.856 23.7838 13.28 24.1838 13.824C24.5838 14.352 24.8078 14.96 24.8558 15.648V20.688C24.8078 21.376 24.5838 21.992 24.1838 22.536C23.7998 23.064 23.2878 23.48 22.6478 23.784C22.0078 24.088 21.2958 24.24 20.5117 24.24ZM21.2558 20.928C22.0398 20.928 22.6718 20.672 23.1518 20.16C23.6318 19.632 23.8718 18.968 23.8718 18.168C23.8718 17.624 23.7598 17.144 23.5358 16.728C23.3278 16.312 23.0238 15.992 22.6238 15.768C22.2398 15.528 21.7918 15.408 21.2798 15.408C20.7678 15.408 20.3118 15.528 19.9118 15.768C19.5278 15.992 19.2158 16.312 18.9758 16.728C18.7518 17.144 18.6398 17.624 18.6398 18.168C18.6398 18.696 18.7518 19.168 18.9758 19.584C19.1998 20 19.5118 20.328 19.9118 20.568C20.3118 20.808 20.7598 20.928 21.2558 20.928ZM23.7278 24V20.856L24.2798 18.024L23.7278 15.192V12.336H27.3278V24H23.7278ZM35.6732 24.264C34.4092 24.264 33.2812 24.008 32.2892 23.496C31.3132 22.968 30.5452 22.24 29.9852 21.312C29.4252 20.384 29.1452 19.336 29.1452 18.168C29.1452 17 29.4172 15.96 29.9612 15.048C30.5212 14.12 31.2732 13.392 32.2172 12.864C33.1612 12.336 34.2252 12.072 35.4092 12.072C36.5612 12.072 37.5772 12.32 38.4572 12.816C39.3372 13.312 40.0252 14 40.5212 14.88C41.0332 15.76 41.2892 16.768 41.2892 17.904C41.2892 18.112 41.2732 18.336 41.2412 18.576C41.2252 18.8 41.1852 19.064 41.1212 19.368L31.0652 19.392V16.872L39.5612 16.848L37.9772 17.904C37.9612 17.232 37.8572 16.68 37.6652 16.248C37.4732 15.8 37.1852 15.464 36.8012 15.24C36.4332 15 35.9772 14.88 35.4332 14.88C34.8572 14.88 34.3532 15.016 33.9212 15.288C33.5052 15.544 33.1772 15.912 32.9372 16.392C32.7132 16.872 32.6012 17.456 32.6012 18.144C32.6012 18.832 32.7212 19.424 32.9612 19.92C33.2172 20.4 33.5692 20.776 34.0172 21.048C34.4812 21.304 35.0252 21.432 35.6492 21.432C36.2252 21.432 36.7452 21.336 37.2092 21.144C37.6732 20.936 38.0812 20.632 38.4332 20.232L40.4492 22.248C39.8732 22.92 39.1772 23.424 38.3612 23.76C37.5452 24.096 36.6492 24.264 35.6732 24.264ZM46.2776 17.832V14.904H49.9256C50.3896 14.904 50.8136 14.808 51.1976 14.616C51.5816 14.424 51.8856 14.144 52.1096 13.776C52.3336 13.408 52.4456 12.96 52.4456 12.432C52.4456 11.92 52.3336 11.48 52.1096 11.112C51.8856 10.744 51.5816 10.464 51.1976 10.272C50.8136 10.08 50.3896 9.984 49.9256 9.984H46.2776V7.056H50.4776C51.5496 7.056 52.5176 7.272 53.3816 7.704C54.2456 8.136 54.9256 8.76 55.4216 9.576C55.9336 10.376 56.1896 11.328 56.1896 12.432C56.1896 13.536 55.9336 14.496 55.4216 15.312C54.9256 16.112 54.2456 16.736 53.3816 17.184C52.5176 17.616 51.5496 17.832 50.4776 17.832H46.2776ZM43.3976 24V7.056H47.1656V24H43.3976ZM58.1319 24V12.336H61.8039V24H58.1319ZM59.9799 10.728C59.4039 10.728 58.9239 10.536 58.5399 10.152C58.1719 9.752 57.9879 9.272 57.9879 8.712C57.9879 8.136 58.1719 7.656 58.5399 7.272C58.9239 6.888 59.4039 6.696 59.9799 6.696C60.5559 6.696 61.0279 6.888 61.3959 7.272C61.7639 7.656 61.9479 8.136 61.9479 8.712C61.9479 9.272 61.7639 9.752 61.3959 10.152C61.0279 10.536 60.5559 10.728 59.9799 10.728ZM70.0298 24.264C68.8298 24.264 67.7418 24 66.7658 23.472C65.7898 22.944 65.0218 22.216 64.4618 21.288C63.9018 20.36 63.6218 19.32 63.6218 18.168C63.6218 17 63.9018 15.96 64.4618 15.048C65.0378 14.12 65.8138 13.392 66.7898 12.864C67.7658 12.336 68.8618 12.072 70.0778 12.072C70.9898 12.072 71.8218 12.232 72.5738 12.552C73.3418 12.856 74.0218 13.32 74.6138 13.944L72.2618 16.296C71.9898 15.992 71.6698 15.768 71.3018 15.624C70.9498 15.48 70.5418 15.408 70.0778 15.408C69.5498 15.408 69.0778 15.528 68.6618 15.768C68.2618 15.992 67.9418 16.312 67.7018 16.728C67.4778 17.128 67.3658 17.6 67.3658 18.144C67.3658 18.688 67.4778 19.168 67.7018 19.584C67.9418 20 68.2698 20.328 68.6858 20.568C69.1018 20.808 69.5658 20.928 70.0778 20.928C70.5578 20.928 70.9818 20.848 71.3498 20.688C71.7338 20.512 72.0618 20.272 72.3338 19.968L74.6618 22.32C74.0538 22.96 73.3658 23.448 72.5978 23.784C71.8298 24.104 70.9738 24.264 70.0298 24.264Z" fill="#7705F0"/>
<path d="M80.9208 6.80004L84.7365 0.192276C83.5566 -0.0714727 82.3323 -0.0637854 81.1558 0.214757C79.9793 0.4933 78.8815 1.03542 77.9451 1.80022L80.8728 6.88004L80.9208 6.80004ZM90.632 5.60008C89.8961 3.26417 88.1122 1.39223 85.8324 0.528264L82.9047 5.60008H90.632ZM90.84 6.40006H84.8485L85.0805 6.80004L88.8882 13.3998C90.2493 11.9315 91.0039 10.0022 91 8C91 7.44802 90.944 6.92004 90.84 6.40006ZM80.2329 8L77.1131 2.60019C76.2561 3.52859 75.6322 4.6475 75.2928 5.86458C74.9534 7.08166 74.9084 8.36201 75.1613 9.59994H81.1528L80.2329 8ZM75.3693 10.3999C76.1052 12.7358 77.8891 14.6078 80.1689 15.4717L83.0966 10.3999H75.3693ZM84.3845 10.3999L81.2648 15.8077C82.4447 16.0715 83.669 16.0638 84.8455 15.7852C86.022 15.5067 87.1198 14.9646 88.0562 14.1998L85.1285 9.11996L84.3845 10.3999Z" fill="#7705F0"/>
</svg>
