<svg width="390" height="106" viewBox="0 0 390 106" fill="none" xmlns="http://www.w3.org/2000/svg">
<path fill-rule="evenodd" clip-rule="evenodd" d="M0 23.7584L16.25 16.9049C32.5 10.0514 65 -3.65552 97.5 0.91346C130 5.48244 162.5 28.3273 195 32.8963C227.5 37.4653 260 23.7584 292.5 26.0428C325 28.3273 357.5 46.6033 373.75 55.7412L390 64.8792V106H373.75C357.5 106 325 106 292.5 106C260 106 227.5 106 195 106C162.5 106 130 106 97.5 106C65 106 32.5 106 16.25 106H0V23.7584Z" fill="#8B3CF1" fill-opacity="0.43"/>
</svg>
