<svg width="389" height="104" viewBox="0 0 389 104" fill="none" xmlns="http://www.w3.org/2000/svg">
<path fill-rule="evenodd" clip-rule="evenodd" d="M0 33.5041L12.9667 25.6712C25.9333 17.8383 51.8667 2.17252 77.8 0.214301C103.733 -1.74392 129.667 10.0054 155.6 23.7129C181.533 37.4205 207.467 53.0863 233.4 51.128C259.333 49.1698 285.267 29.5876 311.2 19.7965C337.133 10.0054 363.067 10.0054 376.033 10.0054H389V104H376.033C363.067 104 337.133 104 311.2 104C285.267 104 259.333 104 233.4 104C207.467 104 181.533 104 155.6 104C129.667 104 103.733 104 77.8 104C51.8667 104 25.9333 104 12.9667 104H0V33.5041Z" fill="#8B3CF1" fill-opacity="0.43"/>
</svg>
