<svg width="106" height="106" viewBox="0 0 106 106" fill="none" xmlns="http://www.w3.org/2000/svg">
<path d="M75.084 4.41675C82.4451 4.41675 88.702 6.99314 93.8548 12.1459C99.0076 17.2987 101.584 23.5556 101.584 30.9167C101.584 38.2779 99.0076 44.5348 93.8548 49.6876C88.702 54.8404 82.4451 57.4167 75.084 57.4167C67.7229 57.4167 61.4659 54.8404 56.3131 49.6876C51.1604 44.5348 48.584 38.2779 48.584 30.9167C48.584 23.5556 51.1604 17.2987 56.3131 12.1459C61.4659 6.99314 67.7229 4.41675 75.084 4.41675ZM20.4277 85.573C16.6736 81.8188 13.8027 77.5126 11.8152 72.6542C9.82773 67.7959 8.83398 62.7167 8.83398 57.4167C8.83398 49.614 10.8951 42.5105 15.0173 36.1063C19.1395 29.7022 24.734 24.8438 31.8006 21.5313C33.9354 20.648 35.9229 20.832 37.7632 22.0834C39.6034 23.3348 40.3395 24.9911 39.9715 27.0522C39.3826 32.4258 40.0083 37.6345 41.8486 42.6783C43.6888 47.7222 46.5229 52.1565 50.3506 55.9813C54.1048 59.7355 58.4847 62.5151 63.4902 64.32C68.4958 66.1249 73.6486 66.7315 78.9486 66.1397C81.0097 65.9188 82.6659 66.6181 83.9173 68.2376C85.1687 69.857 85.4263 71.6605 84.6902 73.648C81.4513 80.7883 76.593 86.4931 70.1152 90.7626C63.6375 95.032 56.4604 97.1667 48.584 97.1667C43.284 97.1667 38.2048 96.173 33.3465 94.1855C28.4882 92.198 24.1819 89.3272 20.4277 85.573Z" fill="black"/>
</svg>
