<svg width="106" height="106" viewBox="0 0 106 106" fill="none" xmlns="http://www.w3.org/2000/svg">
<path d="M18.6348 8.48828L28.1768 102.066H77.8229L87.3671 8.48828H18.6348ZM29.3983 12.8442L52.6893 16.6308L51.8819 21.6348L73.4546 17.0966L75.0487 24.6367H81.5702L74.5518 97.9258H31.4479L24.6366 26.6863L24.4296 24.6367H27.4729L29.0878 14.6847L29.3983 12.8442ZM32.4624 17.1215L29.8745 33.0629L45.8366 35.6508L48.4245 19.7114L32.4624 17.1215ZM70.5561 21.5105L54.7803 24.8438L58.0928 40.6195L73.8893 37.307L70.5561 21.5105ZM45.4432 50.2258L37.8452 64.4281L52.0889 72.0469L59.687 57.8445L45.4432 50.2258Z" fill="black"/>
</svg>
