<svg width="106" height="106" viewBox="0 0 106 106" fill="none" xmlns="http://www.w3.org/2000/svg">
<path d="M80.437 4.45728C72.5686 10.7813 67.2922 18.1466 63.0563 25.9237C65.6491 27.5138 68.3096 28.9906 71.0303 30.3501L89.4031 37.3974C92.2389 38.1804 95.106 38.8452 97.997 39.3901C100.79 30.5068 102.111 21.6218 102.02 12.7389L80.4372 4.45769L80.437 4.45728ZM25.1984 5.26056L28.3314 18.7108L42.6062 22.1019L39.9162 8.74324L25.1984 5.26056ZM21.5559 6.67831L13.8487 16.5216L16.4072 29.3627L24.5837 19.6768L21.5559 6.67831ZM27.3078 22.4433L19.6282 31.5465L30.428 33.1444C31.9202 32.7097 33.419 32.2979 34.9239 31.909L40.6421 25.6136L27.3078 22.4433ZM62.6211 30.1751L64.438 42.3717C65.6616 43.6263 66.847 44.9091 67.9845 46.2256L86.4152 53.2972L95.7973 42.9005C84.4685 40.6024 73.3737 36.5198 62.6209 30.1747L62.6211 30.1751ZM48.1103 32.9663C37.8987 34.902 27.7519 37.5003 17.6303 41.7952C26.0824 49.016 33.5403 56.7768 39.5732 65.3011L70.4631 56.0497C64.9699 47.3829 56.7986 40.1041 48.1099 32.9661L48.1103 32.9663ZM13.6032 43.445C9.3348 53.8549 5.81051 64.4104 5.01758 75.9855C10.0971 86.9358 19.5516 94.7473 27.9492 100.771L36.743 67.9672C30.5373 59.0953 22.6546 51.0027 13.6032 43.445ZM72.6816 59.4241L40.451 69.0779L31.7254 101.627C42.5256 100.001 53.2546 97.099 63.9855 91.6361C69.1513 80.5558 70.3007 70.9893 72.6812 59.4247L72.6816 59.4241Z" fill="black"/>
</svg>
