<svg width="106" height="106" viewBox="0 0 106 106" fill="none" xmlns="http://www.w3.org/2000/svg">
<g clip-path="url(#clip0_120_11)">
<path d="M0.0485833 0V37.1265H38.0275V0H0.0485833ZM68.0211 0V37.1265H106V0H68.0211ZM39.6263 2.90617L39.6793 37.6609L50.8977 48.3934L50.9286 23.8191L39.6263 2.90617ZM66.4178 2.90617L55.1332 23.8191L55.1509 48.3934L66.3692 37.6609L66.4178 2.90617ZM1.46633 38.7253L25.8463 50.5487L50.8226 50.5222L38.5752 38.7297L1.46633 38.7253ZM67.469 38.7253L55.3408 50.7475L80.3171 50.35L104.6 38.7297L67.469 38.7253ZM26.2924 55.7516L1.4045 67.2747H38.5266L50.6636 55.2525L26.2924 55.7516ZM55.2878 55.2525L67.4204 67.2747H104.529L79.8577 55.7516L55.2878 55.2525ZM50.8447 57.6066L39.6263 68.3391L39.5778 103.111L50.8623 82.1765L50.8447 57.6066ZM55.1023 57.6066L55.067 82.1809L66.3692 103.116L66.3207 68.3391L55.1023 57.6066ZM0 68.8912V106H37.9745V68.8912H0ZM67.9725 68.8912V106H105.947V68.8912H67.9725Z" fill="black"/>
</g>
<defs>
<clipPath id="clip0_120_11">
<rect width="106" height="106" fill="white"/>
</clipPath>
</defs>
</svg>
