<svg width="106" height="106" viewBox="0 0 106 106" fill="none" xmlns="http://www.w3.org/2000/svg">
<g clip-path="url(#clip0_120_7)">
<path d="M98.7275 55.2378L78.3225 45.845V37.365C76.1384 36.2502 74.1496 34.7884 72.4336 33.0367V45.8156L53.5008 54.6489V32.0061C53.8557 31.9904 54.2049 31.9106 54.5314 31.7706L67.7225 25.705C66.9902 23.8141 66.5148 21.8335 66.3092 19.8161L53.2947 25.705L38.2781 18.9328L53.2947 12.0134L66.1914 17.9022V17.6667C66.1934 15.6771 66.4608 13.6967 66.9864 11.7778L54.4725 6.12446C54.0849 5.94508 53.6629 5.85217 53.2358 5.85217C52.8087 5.85217 52.3868 5.94508 51.9992 6.12446L29.9158 16.2828C29.4047 16.5193 28.9722 16.8975 28.6695 17.3724C28.3668 17.8473 28.2067 18.3991 28.208 18.9622V45.8745L7.89138 55.2378C7.38028 55.4743 6.94774 55.8525 6.64505 56.3274C6.34235 56.8023 6.18221 57.3541 6.1836 57.9172V86.7139C6.18221 87.2771 6.34235 87.8288 6.64505 88.3038C6.94774 88.7787 7.38028 89.1568 7.89138 89.3933L29.9747 99.5517C30.3623 99.7311 30.7843 99.824 31.2114 99.824C31.6385 99.824 32.0605 99.7311 32.4481 99.5517L53.2947 89.9528L74.1414 99.5517C74.529 99.7311 74.951 99.824 75.3781 99.824C75.8051 99.824 76.2271 99.7311 76.6147 99.5517L98.6981 89.3933C99.2092 89.1568 99.6417 88.7787 99.9444 88.3038C100.247 87.8288 100.407 87.2771 100.406 86.7139V57.9172C100.41 57.3572 100.254 56.8077 99.9568 56.3331C99.6595 55.8586 99.2331 55.4786 98.7275 55.2378ZM16.283 57.9172L31.3292 50.9683L46.3753 57.8878L31.2114 64.7778L16.283 57.9172ZM31.2114 93.6333V70.9906C31.621 70.9583 32.0207 70.8484 32.3892 70.6667L50.2914 62.4222V84.8L31.2114 93.6333ZM60.3614 57.9172L75.4075 50.9978L90.4536 57.9172L75.4075 64.7778L60.3614 57.9172ZM75.4958 93.6333V70.9906C75.868 70.9585 76.2293 70.8482 76.5558 70.6667L94.4581 62.4222V84.8L75.4958 93.6333Z" fill="black"/>
<path d="M88.275 32.3889C96.4058 32.3889 102.997 25.7975 102.997 17.6667C102.997 9.53582 96.4058 2.94446 88.275 2.94446C80.1441 2.94446 73.5527 9.53582 73.5527 17.6667C73.5527 25.7975 80.1441 32.3889 88.275 32.3889Z" fill="black"/>
</g>
<defs>
<clipPath id="clip0_120_7">
<rect width="106" height="106" fill="white"/>
</clipPath>
</defs>
</svg>
