<?xml version="1.0" encoding="UTF-8" standalone="no"?>
<!-- Created with Inkscape (http://www.inkscape.org/) -->

<svg
   width="150"
   height="50"
   viewBox="0 0 39.687499 13.229167"
   version="1.1"
   id="svg1"
   xmlns:inkscape="http://www.inkscape.org/namespaces/inkscape"
   xmlns:sodipodi="http://sodipodi.sourceforge.net/DTD/sodipodi-0.dtd"
   xmlns="http://www.w3.org/2000/svg"
   xmlns:svg="http://www.w3.org/2000/svg">
  <sodipodi:namedview
     id="namedview1"
     pagecolor="#ffffff"
     bordercolor="#000000"
     borderopacity="0.25"
     inkscape:showpageshadow="2"
     inkscape:pageopacity="0.0"
     inkscape:pagecheckerboard="0"
     inkscape:deskcolor="#d1d1d1"
     inkscape:document-units="mm" />
  <defs
     id="defs1" />
  <g
     inkscape:label="Camada 1"
     inkscape:groupmode="layer"
     id="layer1">
    <path
       style="opacity:0.5;fill:none;stroke:#000000;stroke-width:0.529167;stroke-linecap:round;stroke-linejoin:round;stroke-dasharray:none;stroke-opacity:1"
       d="M 1.4686064,3.0840733 3.5246554,0.97295172 6.4251528,2.9739278 8.4812019,0.93623652 10.427105,2.7169219 13.437748,0.95459412 15.640658,2.6434915 18.651301,0.95459412 20.85421,2.4232005 23.864853,0.73430322 27.022358,2.2763399 30.253291,0.58744254 32.970212,2.4232005 35.980856,0.73430322 38.91807,3.0840733"
       id="path1" />
    <path
       style="opacity:0.5;fill:none;stroke:#000000;stroke-width:0.529167;stroke-linecap:round;stroke-linejoin:round;stroke-dasharray:none;stroke-opacity:1"
       d="m 1.4686065,5.1970282 2.056049,-2.1111216 2.900498,2.0009761 2.056049,-2.0376913 1.9459025,1.7806854 3.010643,-1.7623278 2.20291,1.6888974 3.010643,-1.6888974 2.202909,1.4686064 3.010643,-1.6888973 3.157505,1.5420367 3.230933,-1.6888974 2.716921,1.835758 3.010644,-1.6888973 2.937214,2.3497701"
       id="path1-8" />
    <path
       style="opacity:0.5;fill:none;stroke:#000000;stroke-width:0.529167;stroke-linecap:round;stroke-linejoin:round;stroke-dasharray:none;stroke-opacity:1"
       d="m 1.4686063,7.5691765 2.056049,-2.1111216 2.9004974,2.0009761 2.0560491,-2.0376913 1.9459032,1.7806854 3.010643,-1.7623278 2.20291,1.6888974 3.010643,-1.6888974 2.202909,1.4686064 3.010643,-1.6888973 3.157505,1.5420367 3.230933,-1.6888974 2.716921,1.835758 3.010644,-1.6888973 2.937214,2.3497701"
       id="path1-5" />
    <path
       style="opacity:0.5;fill:none;stroke:#000000;stroke-width:0.529167;stroke-linecap:round;stroke-linejoin:round;stroke-dasharray:none;stroke-opacity:1"
       d="m 1.4686063,10.286806 2.056049,-2.111122 2.9004974,2.000976 2.0560498,-2.0376913 1.9459025,1.780686 3.010643,-1.7623284 2.202909,1.6888974 3.010642,-1.6888974 2.202909,1.4686065 3.010643,-1.6888973 3.157505,1.5420367 3.230934,-1.6888975 2.716921,1.8357581 3.010644,-1.6888973 2.937213,2.3497705"
       id="path1-3" />
    <path
       style="opacity:0.5;fill:none;stroke:#000000;stroke-width:0.529167;stroke-linecap:round;stroke-linejoin:round;stroke-dasharray:none;stroke-opacity:1"
       d="m 1.4686062,12.732384 2.056049,-2.111121 2.900498,2.000976 2.056049,-2.037691 1.9459028,1.780686 3.010643,-1.762329 2.202909,1.688898 3.010642,-1.688898 2.202909,1.468607 3.010643,-1.688898 3.157505,1.542037 3.230934,-1.688897 2.716921,1.835758 3.010644,-1.688898 2.937213,2.34977"
       id="path1-3-6" />
  </g>
</svg>
