<svg width="390" height="107" viewBox="0 0 390 107" fill="none" xmlns="http://www.w3.org/2000/svg">
<path fill-rule="evenodd" clip-rule="evenodd" d="M0 78.6307L12.7875 62.0819C25.9625 45.5331 51.5375 12.4355 77.5 5.3432C103.462 -1.74914 129.037 17.1638 155 21.892C180.962 26.6202 206.537 17.1638 232.5 10.0714C258.462 2.97909 284.038 -1.74914 310 0.614975C335.962 2.97909 361.537 12.4355 387.5 28.9843C413.462 45.5331 439.037 69.1742 452.212 80.9948L465 92.8153V107H452.212C439.037 107 413.462 107 387.5 107C361.537 107 335.962 107 310 107C284.038 107 258.462 107 232.5 107C206.537 107 180.962 107 155 107C129.037 107 103.462 107 77.5 107C51.5375 107 25.9625 107 12.7875 107H0V78.6307Z" fill="#8B3CF1" fill-opacity="0.43"/>
</svg>
